<svg width="173" height="204" viewBox="0 0 173 204" fill="none" xmlns="http://www.w3.org/2000/svg">
<path d="M86.0503 100.253L127.738 150.379H172.097L86.0503 100.253Z" fill="#919191"/>
<path d="M86.0502 100.253L85.8844 100.351L0.00390625 150.379H44.3629L86.0502 100.253Z" fill="#727272"/>
<path d="M86.0503 100.255L104.133 150.381H127.738L86.0503 100.255Z" fill="#828282"/>
<path d="M86.0503 150.381H104.133L86.0503 100.255V150.381Z" fill="#828282"/>
<path d="M67.9673 150.381H86.0499V100.255L67.9673 150.381Z" fill="#828282"/>
<path d="M86.0502 100.255L44.3628 150.381H67.9675L86.0502 100.255Z" fill="#828282"/>
<path d="M86.0503 100.253L86.1695 100.322L172.098 150.377L149.917 111.616L86.0503 100.253Z" fill="#D7D7D7"/>
<path d="M86.0503 100.253L149.917 111.616L138.115 90.9893L86.0503 100.253Z" fill="#E6E6E6"/>
<path d="M86.0503 100.253L138.115 90.9898L129.075 75.1904L86.0503 100.253Z" fill="#E6E6E6"/>
<path d="M129.075 75.19L120.034 59.3906L86.0503 100.253L129.075 75.19Z" fill="#E6E6E6"/>
<path d="M86.0503 100.253L120.034 59.3912L108.232 38.7646L86.0503 100.253Z" fill="#E6E6E6"/>
<path d="M86.0503 100.253L108.232 38.7645L86.0503 0.00390625V100.253Z" fill="#F6F6F6"/>
<path d="M86.05 100.253V0.00390625L63.8687 38.7645L86.05 100.253Z" fill="#242424"/>
<path d="M86.0501 100.253L22.1833 111.616L0.00195312 150.377L86.0501 100.253Z" fill="#434343"/>
<path d="M86.0486 100.253L63.8673 38.7646L52.0649 59.3912L86.0486 100.253Z" fill="#333333"/>
<path d="M52.0648 59.3916L43.0234 75.191L86.0485 100.254L52.0648 59.3916Z" fill="#333333"/>
<path d="M86.0484 100.253L43.0234 75.1904L33.9839 90.9898L86.0484 100.253Z" fill="#333333"/>
<path d="M86.0485 100.254L33.984 90.9902L22.1816 111.617L86.0485 100.254Z" fill="#333333"/>
<g style="mix-blend-mode:color">
<mask id="mask0_41_1961" style="mask-type:alpha" maskUnits="userSpaceOnUse" x="0" y="0" width="173" height="151">
<g style="mix-blend-mode:difference">
<path d="M127.738 150.376H44.3628L86.0503 100.251L127.738 150.376ZM44.3628 150.375H0.00341797L85.8843 100.347L86.0503 100.249L44.3628 150.375ZM108.231 38.7607L120.034 59.3867L129.075 75.1855L138.115 90.9854L149.917 111.612L172.098 150.373L86.1694 100.318L172.096 150.375H127.738L86.0503 100.249L63.8687 38.7607L86.0503 0L108.231 38.7607ZM0.00146484 150.373L22.1831 111.612L86.0503 100.249L0.00146484 150.373ZM86.0483 100.249L22.1812 111.612L33.9839 90.9854L43.0239 75.1855L52.0649 59.3867L63.8667 38.7598L86.0483 100.249Z" fill="white"/>
</g>
</mask>
<g mask="url(#mask0_41_1961)">
<rect width="170.841" height="150.381" fill="#EC4E0B"/>
</g>
</g>
<path d="M0.0996094 167.161V171.498H4.53431V167.161H0.0996094ZM0.379275 175.221V196.088H4.2946V175.221H0.379275Z" fill="#141414"/>
<path d="M8.65064 196.088H12.566V183.281C12.566 180.131 14.4038 178.044 17.3203 178.044C20.3167 178.044 20.876 179.926 20.876 182.709V196.088H24.7914V183.281C24.7914 180.131 26.6292 178.044 29.5457 178.044C32.5421 178.044 33.1014 179.926 33.1014 182.709V196.088H37.0167V181.604C37.0167 177.144 34.9392 174.608 30.8241 174.608C27.6679 174.608 25.6303 176.244 24.1521 178.249H24.0722C23.2332 175.917 21.5153 174.608 18.6787 174.608C15.6023 174.608 13.7246 176.244 12.6459 177.84H12.566V175.221H8.65064V196.088Z" fill="#141414"/>
<path d="M46.7479 196.66C50.064 196.66 52.3812 195.31 53.7396 193.142H53.8195C54.0192 195.515 55.0979 196.292 57.0157 196.292C57.6549 196.292 58.3341 196.21 59.0133 196.047V193.592C58.7736 193.633 58.6537 193.633 58.5338 193.633C57.7748 193.633 57.575 192.855 57.575 191.341V181.768C57.575 176.367 54.219 174.567 50.024 174.567C43.7915 174.567 41.2345 177.717 41.0347 181.727H45.03C45.2297 178.944 46.3084 177.799 49.8642 177.799C52.8606 177.799 53.7396 179.067 53.7396 180.581C53.7396 182.627 51.7819 183.036 48.5857 183.65C43.5118 184.672 40.0759 186.023 40.0759 190.687C40.0759 194.246 42.6728 196.66 46.7479 196.66ZM47.6269 193.428C45.1898 193.428 44.191 192.364 44.191 190.4C44.191 188.232 45.6692 187.25 49.2649 186.473C51.3424 186.023 53.1003 185.573 53.7396 184.959V187.946C53.7396 191.587 51.1427 193.428 47.6269 193.428Z" fill="#141414"/>
<path d="M76.37 194.696C76.37 198.624 74.4523 200.302 70.7368 200.302C67.4207 200.302 66.0224 198.829 65.6229 196.947H61.5877C61.9872 200.711 64.9037 203.575 70.7368 203.575C76.5698 203.575 80.2853 200.752 80.2853 194.451V175.221H76.37V177.676H76.2901C75.1715 176.203 73.2937 174.608 70.0176 174.608C64.9437 174.608 61.0284 178.126 61.0284 184.836C61.0284 191.505 64.9437 195.024 70.0176 195.024C73.2937 195.024 75.1715 193.551 76.2901 191.873H76.37V194.696ZM70.7368 177.963C74.2526 177.963 76.3301 180.254 76.3301 184.836C76.3301 189.378 74.2526 191.71 70.7368 191.71C66.9013 191.71 65.1035 188.764 65.1035 184.836C65.1035 180.908 66.9013 177.963 70.7368 177.963Z" fill="#141414"/>
<path d="M84.4129 167.161V171.498H88.8476V167.161H84.4129ZM84.6926 175.221V196.088H88.6079V175.221H84.6926Z" fill="#141414"/>
<path d="M92.9639 196.088H96.8793V183.281C96.8793 180.131 99.0367 178.044 102.393 178.044C105.309 178.044 106.508 179.926 106.508 182.709V196.088H110.463V181.604C110.463 176.817 107.427 174.608 103.671 174.608C100.155 174.608 98.0379 176.244 96.9592 177.84H96.8793V175.221H92.9639V196.088Z" fill="#141414"/>
<path d="M123.612 196.701C128.965 196.701 131.962 193.674 133 189.664H129.045C128.646 191.055 127.287 193.428 123.692 193.428C119.656 193.428 117.659 190.237 117.579 186.718H133.24C133.28 186.391 133.28 185.777 133.28 185.204C133.28 178.74 129.804 174.567 123.612 174.567C117.379 174.567 113.544 179.067 113.544 185.613C113.544 191.996 117.139 196.701 123.612 196.701ZM123.492 177.84C126.968 177.84 129.165 180.295 129.165 183.568H117.579C117.819 180.131 120.216 177.84 123.492 177.84Z" fill="#141414"/>
<path d="M134.743 191.628V196.088H139.098V191.628H134.743Z" fill="#141414"/>
<path d="M144.185 167.161V171.498H148.62V167.161H144.185ZM144.465 175.221V196.088H148.38V175.221H144.465Z" fill="#141414"/>
<path d="M161.811 196.701C168.163 196.701 171.999 192.16 171.999 185.613C171.999 179.108 168.163 174.567 161.811 174.567C155.459 174.567 151.623 179.149 151.623 185.654C151.623 192.201 155.459 196.701 161.811 196.701ZM161.811 193.387C157.616 193.387 155.698 189.991 155.698 185.654C155.698 181.277 157.616 177.922 161.811 177.922C165.966 177.922 167.924 181.277 167.924 185.654C167.924 189.991 165.966 193.387 161.811 193.387Z" fill="#141414"/>
</svg>
